<?xml version="1.0" standalone="no"?>
<!DOCTYPE svg PUBLIC "-//W3C//DTD SVG 20010904//EN"
 "http://www.w3.org/TR/2001/REC-SVG-20010904/DTD/svg10.dtd">
<svg version="1.0" xmlns="http://www.w3.org/2000/svg"
 width="421.000000pt" height="421.000000pt" viewBox="0 0 421.000000 421.000000"
 preserveAspectRatio="xMidYMid meet">
<metadata>
Created by potrace 1.11, written by Peter Selinger 2001-2013
</metadata>
<g transform="translate(0.000000,421.000000) scale(0.100000,-0.100000)"
fill="#000000" stroke="none">
<path d="M2697 3546 c-4 -11 -11 -14 -19 -9 -23 14 -56 10 -50 -6 4 -10 1 -13
-12 -8 -10 4 -15 3 -11 -3 9 -14 -8 -12 -25 3 -12 10 -12 9 -1 -5 13 -17 8
-23 -13 -19 -5 1 -6 -5 -3 -13 4 -10 0 -14 -14 -11 -11 2 -17 0 -15 -4 12 -19
13 -58 3 -57 -7 0 -13 -3 -14 -9 -2 -5 1 -10 6 -10 5 0 13 -3 17 -7 4 -5 -1
-8 -11 -8 -17 0 -17 -1 0 -20 10 -11 13 -20 7 -20 -6 0 -13 6 -15 13 -3 7 -6
6 -6 -5 -1 -9 -6 -20 -13 -24 -6 -4 -8 -3 -5 3 4 6 -4 13 -18 15 -13 3 -22 2
-20 -2 3 -5 -2 -10 -10 -14 -8 -3 -17 -1 -20 5 -4 5 -22 8 -40 7 -19 -1 -37 1
-41 5 -4 3 -21 -1 -38 -10 -26 -13 -29 -13 -19 -1 11 12 9 14 -10 12 -12 -1
-30 -3 -40 -3 -12 -1 -16 -5 -11 -13 5 -9 2 -9 -9 1 -14 11 -20 11 -34 0 -15
-12 -16 -12 -10 3 5 13 0 16 -25 12 -17 -2 -35 -9 -40 -16 -5 -9 -8 -9 -8 -2
0 17 -28 25 -36 12 -5 -7 -2 -8 6 -3 9 5 11 4 6 -4 -6 -9 -11 -9 -22 0 -11 9
-18 8 -31 -2 -15 -12 -16 -12 -10 3 5 13 0 16 -25 12 -17 -2 -35 -9 -39 -15
-5 -8 -8 -8 -10 0 -2 6 -14 13 -27 16 -12 2 -20 0 -17 -5 9 -15 -18 -17 -44
-4 -28 15 -44 9 -21 -7 12 -9 12 -10 -3 -5 -10 3 -21 6 -23 6 -3 0 -3 4 0 9 7
10 -13 9 -31 -2 -6 -4 -14 -3 -17 2 -3 5 -15 7 -26 4 -11 -3 -17 -10 -13 -17
4 -6 0 -6 -9 2 -19 15 -61 25 -53 13 3 -5 -2 -11 -10 -15 -8 -3 -17 -1 -20 3
-2 5 -16 11 -30 13 -13 3 -22 2 -20 -3 9 -14 -19 -16 -44 -3 -28 15 -44 9 -21
-7 12 -9 12 -10 -3 -5 -10 3 -21 6 -23 6 -3 0 -3 4 0 9 7 10 -13 9 -31 -2 -6
-4 -14 -3 -17 2 -3 5 -15 7 -26 4 -11 -3 -17 -10 -13 -17 4 -6 0 -6 -9 2 -19
15 -61 25 -53 13 3 -5 -2 -11 -10 -15 -8 -3 -17 -1 -20 5 -4 5 -22 8 -40 7
-19 -1 -37 1 -41 5 -4 3 -21 -1 -38 -10 -23 -12 -28 -13 -19 -2 9 12 4 14 -32
14 -24 0 -41 -3 -39 -7 8 -13 -21 -14 -45 -2 -28 15 -44 9 -21 -7 12 -9 12
-10 -3 -5 -10 3 -21 6 -23 6 -3 0 -3 4 0 9 7 10 -13 9 -31 -2 -6 -4 -14 -3
-17 2 -3 5 -15 7 -26 4 -11 -3 -17 -10 -13 -17 4 -6 0 -6 -9 2 -19 15 -61 25
-53 13 3 -5 -2 -11 -10 -15 -8 -3 -17 -1 -20 5 -4 5 -22 8 -40 7 -19 -1 -37 1
-41 5 -4 3 -21 -1 -38 -10 -26 -14 -29 -14 -18 -1 11 13 7 15 -25 11 -21 -2
-43 -5 -49 -7 -6 -2 -17 0 -24 4 -8 5 -26 2 -44 -7 -24 -12 -28 -13 -19 -2 9
12 4 14 -32 14 -24 0 -41 -3 -39 -7 8 -13 -21 -14 -45 -2 -28 15 -44 9 -21 -7
12 -9 12 -10 -3 -5 -10 3 -21 6 -23 6 -3 0 -3 4 0 9 7 10 -13 9 -31 -2 -6 -4
-14 -3 -17 2 -8 12 -46 2 -46 -13 0 -7 -3 -7 -8 2 -5 7 -18 14 -31 17 -14 2
-19 0 -15 -7 5 -8 1 -9 -11 -4 -14 5 -16 4 -6 -7 9 -12 7 -14 -13 -12 -14 2
-30 6 -37 11 -8 4 -9 3 -5 -4 7 -12 -39 -38 -57 -33 -5 1 -6 -3 -2 -9 5 -8 12
-7 23 2 13 11 14 11 7 -2 -6 -8 -10 -18 -11 -22 -1 -5 -2 -11 -3 -14 0 -4 -7
-1 -15 5 -11 9 -16 9 -22 0 -4 -7 -3 -9 4 -5 7 4 10 -2 9 -14 -1 -11 -6 -19
-13 -16 -16 6 -9 -45 8 -55 10 -6 8 -9 -7 -10 -11 0 -15 -3 -9 -5 7 -3 10 -14
7 -24 -3 -13 0 -20 8 -20 11 0 11 -2 -1 -10 -11 -7 -11 -10 -2 -10 7 0 10 -5
7 -10 -4 -6 -11 -8 -16 -5 -5 3 -6 -1 -3 -9 3 -9 10 -14 15 -11 8 6 4 -28 -6
-44 -3 -6 0 -13 7 -18 17 -11 16 -35 -2 -51 -13 -10 -13 -12 0 -10 8 2 14 -1
15 -7 0 -5 4 -16 9 -24 6 -9 5 -12 -2 -7 -6 3 -14 1 -18 -5 -4 -7 -3 -9 4 -5
17 10 25 -13 10 -31 -9 -12 -9 -15 0 -9 12 7 16 -4 13 -31 -1 -7 3 -13 9 -13
6 0 8 -5 5 -10 -4 -6 -12 -8 -18 -4 -7 3 -4 -1 6 -9 18 -15 24 -33 7 -22 -5 3
-3 -6 5 -21 7 -15 11 -33 8 -42 -4 -9 -2 -13 4 -9 5 3 10 0 10 -8 0 -8 -4 -12
-8 -9 -4 2 -10 0 -14 -6 -3 -5 -1 -10 5 -10 6 0 8 -5 4 -12 -6 -10 -5 -10 7
-1 11 9 14 7 14 -12 0 -13 -3 -21 -6 -19 -4 2 -9 -3 -13 -11 -3 -8 0 -17 6
-21 7 -5 8 -2 3 7 -5 8 -4 11 0 6 5 -4 9 -16 10 -27 1 -16 -1 -18 -13 -7 -13
10 -14 9 -4 -9 6 -11 13 -33 16 -48 4 -23 2 -27 -11 -21 -14 5 -13 2 3 -16 10
-12 13 -19 7 -15 -19 11 -15 -5 5 -20 14 -12 14 -13 1 -8 -14 4 -16 0 -9 -36
7 -36 6 -39 -9 -28 -14 12 -14 11 -2 -4 11 -15 11 -21 0 -35 -10 -14 -8 -13
10 2 l24 20 -11 -21 c-8 -16 -8 -24 1 -34 10 -10 8 -12 -6 -7 -22 8 -22 3 0
-19 13 -13 15 -18 5 -22 -10 -3 -10 -7 -1 -18 9 -11 8 -14 -2 -15 -8 0 -5 -4
6 -9 l20 -9 -20 0 c-15 -1 -17 -3 -6 -10 9 -6 10 -10 2 -16 -9 -5 -9 -10 0
-21 9 -11 8 -14 -2 -14 -11 0 -11 -2 1 -10 12 -8 13 -11 1 -19 -11 -7 -11 -10
0 -15 11 -5 12 -7 1 -12 -10 -5 -9 -9 4 -18 13 -10 14 -15 4 -21 -9 -6 -11 -4
-5 5 6 9 4 11 -4 5 -9 -5 -10 -10 -2 -18 15 -15 14 -30 -2 -21 -8 5 -8 2 2 -9
11 -14 11 -17 0 -17 -11 0 -11 -3 1 -11 12 -8 12 -12 2 -16 -10 -4 -9 -8 4
-17 13 -10 14 -15 4 -21 -9 -6 -11 -4 -5 5 6 9 4 11 -4 5 -9 -5 -10 -10 -2
-18 15 -15 14 -30 -2 -21 -9 6 -9 5 0 -7 10 -12 10 -18 0 -29 -9 -10 -9 -11 1
-5 16 8 13 -26 -3 -37 -6 -5 -4 -8 5 -8 13 0 13 -1 0 -10 -12 -8 -12 -10 -1
-10 10 0 11 -3 2 -14 -9 -11 -9 -16 0 -22 8 -5 9 -3 4 6 -6 9 -4 11 5 5 10 -6
10 -11 -4 -20 -15 -12 -15 -13 0 -19 15 -6 15 -8 -2 -27 -16 -17 -16 -22 -4
-30 13 -8 13 -10 0 -19 -13 -9 -13 -10 0 -10 12 0 13 -2 1 -9 -7 -5 -11 -13
-7 -19 3 -6 -2 -15 -11 -21 -12 -7 -13 -10 -4 -11 11 0 11 -3 0 -17 -12 -15
-12 -16 1 -8 10 6 9 2 -3 -12 -14 -16 -15 -23 -6 -29 8 -4 10 -3 5 4 -4 7 -2
12 3 12 14 0 14 -17 0 -26 -6 -3 -9 -19 -7 -35 3 -16 0 -31 -6 -33 -6 -2 -2
-5 9 -6 20 -1 20 -1 1 -15 -20 -15 -20 -15 0 -15 15 0 16 -2 5 -9 -17 -11 -22
-49 -8 -58 6 -4 7 -1 2 7 -5 8 -4 11 3 6 17 -10 3 -36 -16 -29 -10 4 -7 -3 8
-16 14 -12 20 -20 14 -17 -15 8 -26 -21 -12 -30 7 -5 8 -2 3 6 -5 8 -4 11 3 6
6 -4 9 -13 6 -21 -4 -8 -10 -12 -15 -9 -5 3 -6 -2 -3 -10 3 -9 11 -13 18 -9 6
3 2 -4 -9 -17 -11 -13 -14 -20 -6 -15 10 6 12 2 6 -14 -5 -16 -2 -21 12 -21
17 -1 17 -1 1 -11 -10 -5 -18 -15 -18 -22 0 -9 2 -9 8 0 9 15 34 1 39 -21 2
-9 5 -24 7 -33 3 -10 5 -22 5 -26 1 -5 6 -5 13 -1 7 4 8 3 4 -5 -4 -6 -15 -10
-24 -9 -10 2 -16 -3 -14 -11 2 -8 -3 -18 -10 -23 -9 -6 -4 -7 12 -3 24 6 24 5
6 -9 -10 -9 -23 -13 -29 -9 -6 3 -7 1 -3 -6 4 -6 12 -9 17 -6 5 4 9 2 9 -4 0
-5 -8 -12 -17 -14 -17 -4 -17 -5 0 -6 9 0 17 -7 17 -13 0 -9 4 -8 10 2 5 8 10
10 10 4 0 -5 -5 -15 -12 -22 -9 -9 -8 -12 5 -12 9 0 17 -5 17 -11 0 -5 -4 -8
-8 -5 -5 3 -9 -1 -9 -8 0 -8 14 -12 42 -12 28 1 41 -3 38 -10 -2 -7 1 -15 8
-20 8 -4 10 -3 5 4 -5 8 -2 10 8 6 9 -3 14 -9 11 -13 -2 -4 2 -8 9 -8 8 0 12
6 9 14 -4 9 0 11 11 7 9 -3 14 -9 11 -13 -2 -4 2 -8 10 -8 8 0 12 4 10 8 -3 4
2 9 10 12 9 4 12 1 9 -8 -5 -11 0 -12 23 -7 15 5 35 8 43 7 8 -1 20 3 27 7 7
6 14 4 19 -3 4 -8 3 -9 -4 -5 -7 4 -12 2 -12 -3 0 -14 17 -14 26 0 4 8 9 7 15
-2 5 -8 9 -9 9 -4 0 6 9 11 20 12 13 1 18 -2 13 -10 -4 -7 2 -5 12 3 14 12 19
12 23 2 3 -10 8 -8 18 5 12 16 13 16 8 1 -5 -14 -1 -16 18 -12 12 3 32 7 43 8
11 1 25 5 32 9 6 4 15 2 19 -4 4 -8 3 -9 -4 -5 -7 4 -12 2 -12 -3 0 -14 13
-14 28 1 9 9 12 9 12 -3 0 -12 2 -12 10 1 5 8 10 11 10 7 0 -4 10 -2 23 4 21
12 21 11 7 -6 -14 -17 -13 -18 5 -8 11 5 27 9 35 8 8 -1 20 3 27 7 7 6 14 4
19 -3 4 -8 3 -9 -4 -5 -7 4 -12 2 -12 -3 0 -14 17 -14 26 0 4 8 9 7 15 -2 5
-8 9 -9 9 -3 0 6 12 10 28 10 15 -1 32 2 39 7 6 4 14 3 19 -4 4 -8 3 -9 -4 -5
-7 4 -12 2 -12 -3 0 -14 13 -14 28 1 9 9 12 9 12 -2 0 -13 2 -13 10 0 5 8 10
11 10 6 0 -5 7 -3 15 4 13 11 14 10 10 -3 -4 -8 -1 -18 6 -23 8 -4 10 -3 5 4
-4 7 -2 12 4 12 6 0 8 5 4 13 -6 9 -4 9 8 -1 8 -7 23 -10 32 -6 10 4 16 1 16
-7 0 -8 6 -5 15 7 12 15 14 16 9 2 -5 -14 -1 -16 18 -12 12 3 32 7 43 8 11 1
25 5 32 9 6 4 15 2 19 -4 4 -8 3 -9 -4 -5 -7 4 -12 2 -12 -3 0 -14 17 -14 26
0 4 8 9 7 15 -2 5 -8 9 -9 9 -4 0 6 9 11 20 12 13 1 18 -2 13 -10 -4 -7 2 -5
12 3 14 12 19 12 23 2 3 -10 8 -8 18 5 11 14 13 14 9 2 -4 -10 0 -16 9 -16 8
0 12 5 9 10 -4 6 0 8 9 4 9 -3 20 -1 26 5 6 6 12 6 17 -3 5 -8 4 -10 -3 -5 -7
4 -12 2 -12 -3 0 -14 13 -14 28 1 9 9 12 9 12 -3 0 -12 2 -12 10 1 5 8 10 11
10 6 0 -5 7 -3 15 4 13 11 14 10 10 -3 -4 -8 -1 -18 6 -23 8 -4 10 -3 5 4 -4
7 -2 12 4 12 6 0 8 5 4 13 -6 9 -5 9 7 0 15 -12 66 -12 86 0 6 4 15 2 19 -4 4
-8 3 -9 -4 -5 -7 4 -12 2 -12 -3 0 -14 13 -14 28 1 9 9 12 9 12 -3 0 -12 2
-12 10 1 5 8 10 11 10 7 0 -4 10 -2 23 4 21 12 21 11 7 -6 -14 -17 -13 -18 5
-8 11 5 27 9 35 8 8 -1 20 3 27 7 7 6 14 4 19 -3 4 -8 3 -9 -4 -5 -7 4 -12 2
-12 -3 0 -14 17 -14 26 0 4 8 9 7 15 -2 5 -8 9 -9 9 -4 0 6 9 11 20 12 13 1
18 -2 13 -10 -4 -7 2 -5 12 3 14 12 19 12 23 2 3 -10 8 -8 18 5 12 16 13 16 8
1 -5 -14 -1 -16 18 -12 12 3 32 7 43 8 11 1 25 5 32 9 6 4 15 2 19 -4 4 -8 3
-9 -4 -5 -7 4 -12 2 -12 -3 0 -14 17 -14 26 0 4 8 9 7 15 -2 5 -8 9 -9 9 -4 0
6 9 11 20 12 13 1 18 -2 13 -10 -4 -7 2 -5 12 3 14 12 19 12 23 2 3 -10 8 -8
18 5 12 15 13 15 8 1 -6 -18 10 -19 35 -3 10 5 16 4 19 -4 3 -8 8 -6 18 6 12
16 13 16 8 1 -5 -14 -1 -16 18 -12 12 3 32 7 43 8 11 1 25 5 32 9 6 4 15 2 19
-4 4 -8 3 -9 -4 -5 -7 4 -12 2 -12 -3 0 -14 17 -14 26 0 4 8 9 7 15 -2 5 -8 9
-9 9 -4 0 6 9 11 20 12 13 1 18 -2 13 -10 -4 -7 2 -5 12 3 14 12 19 12 23 2 3
-10 8 -8 18 5 12 15 13 15 8 1 -6 -18 10 -19 35 -3 10 5 16 4 19 -4 3 -8 8 -6
18 6 12 16 13 16 8 1 -5 -14 -1 -16 18 -12 12 3 32 7 43 8 11 1 25 5 32 9 6 4
15 2 19 -4 4 -8 3 -9 -4 -5 -7 4 -12 2 -12 -3 0 -14 17 -14 26 0 4 8 9 7 15
-2 5 -8 9 -9 9 -4 0 6 9 11 20 12 13 1 18 -2 13 -10 -4 -7 2 -5 12 3 14 12 19
12 23 2 3 -10 8 -8 18 5 12 15 13 15 8 1 -6 -18 10 -19 35 -3 10 5 16 4 19 -4
3 -8 8 -6 18 6 12 16 13 16 8 1 -5 -14 -1 -16 18 -12 12 3 32 7 43 8 11 1 25
5 32 9 6 4 15 2 19 -4 4 -8 3 -9 -4 -5 -7 4 -12 2 -12 -3 0 -14 17 -14 26 0 4
8 9 7 15 -2 5 -8 9 -9 9 -4 0 6 9 11 20 12 13 1 18 -2 13 -10 -4 -7 2 -5 12 3
14 12 19 12 23 2 3 -10 8 -8 18 5 10 13 13 14 9 2 -5 -12 1 -15 24 -14 17 1
34 4 37 8 11 11 46 8 39 -3 -3 -6 -1 -10 6 -10 7 0 9 8 6 21 -4 14 -2 18 6 11
18 -14 49 -23 42 -13 -3 5 -1 12 5 16 5 3 10 1 10 -4 0 -6 7 -11 16 -11 9 0
12 5 8 13 -6 9 -5 9 8 0 8 -7 18 -10 22 -6 10 10 37 13 31 3 -3 -4 2 -10 10
-14 8 -3 14 0 12 6 -1 5 6 12 16 13 9 2 17 -2 17 -8 0 -7 5 -5 10 3 6 10 10
11 10 3 0 -7 5 -13 11 -13 5 0 8 4 5 9 -7 11 13 9 32 -2 7 -5 12 -3 12 5 0 9
3 9 10 -2 9 -14 15 -7 11 14 -1 5 4 5 11 -1 18 -14 50 -12 44 3 -3 8 2 11 14
9 14 -3 17 1 13 13 -6 15 -5 16 12 2 17 -14 18 -13 12 4 -5 14 -3 17 8 13 8
-4 17 -1 21 5 4 6 3 8 -2 5 -6 -3 -10 9 -10 29 0 20 5 34 12 34 7 0 16 5 20
12 5 8 2 9 -9 5 -13 -5 -18 2 -23 31 -9 48 -22 64 -47 56 -15 -5 -19 -3 -15 8
4 10 -2 13 -28 10 -19 -2 -34 0 -34 6 0 5 -7 13 -16 16 -13 5 -14 3 -6 -7 8
-10 6 -13 -9 -13 -10 0 -19 4 -19 9 0 4 -6 5 -12 0 -19 -11 -39 -13 -32 -2 6
10 -9 12 -20 2 -11 -11 -46 -10 -46 1 0 6 -5 4 -10 -4 -8 -12 -10 -12 -10 5
-1 18 -1 19 -11 3 -5 -10 -15 -18 -22 -18 -7 0 -6 4 3 10 8 5 10 10 5 10 -6 0
-16 -5 -23 -12 -8 -8 -12 -8 -12 -1 0 6 -7 14 -16 17 -14 5 -15 4 -5 -8 10
-12 6 -13 -24 -10 -23 2 -33 -1 -29 -7 4 -7 -1 -7 -15 0 -11 7 -21 8 -21 4 0
-9 -73 -8 -87 0 -5 3 -15 2 -23 -3 -9 -5 -20 -4 -29 3 -12 10 -14 9 -8 -5 4
-12 2 -15 -8 -11 -8 3 -13 9 -10 13 3 4 -10 4 -29 0 -19 -4 -40 -4 -47 1 -7 4
-20 4 -29 -1 -11 -6 -22 -5 -30 3 -10 10 -12 9 -7 -5 4 -12 2 -15 -8 -11 -8 3
-13 9 -10 13 3 4 -10 4 -29 0 -19 -4 -40 -4 -47 1 -7 4 -20 4 -29 -1 -11 -6
-22 -5 -30 3 -10 10 -12 9 -7 -5 4 -12 2 -15 -8 -11 -8 3 -13 9 -10 13 3 4
-10 4 -29 0 -19 -4 -40 -4 -47 1 -7 4 -20 4 -29 -1 -11 -6 -22 -5 -30 3 -10
10 -12 9 -7 -5 4 -12 2 -15 -8 -11 -8 3 -13 9 -10 13 3 4 -10 4 -29 0 -19 -4
-40 -4 -47 1 -7 4 -20 4 -29 -1 -11 -6 -22 -5 -30 3 -10 10 -12 9 -7 -5 4 -12
2 -15 -8 -11 -8 3 -13 9 -10 13 3 4 -10 4 -29 0 -19 -4 -40 -4 -47 1 -7 4 -20
4 -29 -1 -11 -6 -22 -5 -30 3 -10 10 -12 9 -7 -5 4 -12 2 -15 -8 -11 -8 3 -13
9 -10 13 3 4 -10 4 -29 0 -19 -4 -40 -4 -47 1 -7 4 -20 4 -29 -1 -11 -6 -22
-5 -30 3 -10 10 -12 9 -7 -5 4 -12 2 -15 -8 -11 -8 3 -13 9 -10 13 3 4 -10 4
-29 0 -19 -4 -40 -4 -47 1 -7 4 -20 4 -29 -1 -11 -6 -22 -5 -30 3 -10 10 -12
9 -7 -5 4 -12 2 -15 -8 -11 -8 3 -13 8 -10 13 2 4 -7 5 -20 2 -15 -2 -22 -9
-18 -16 5 -8 3 -8 -8 0 -8 6 -21 12 -29 12 -8 1 -29 3 -47 5 -17 2 -30 0 -27
-4 2 -4 -3 -10 -12 -13 -11 -4 -15 -2 -11 8 5 11 0 13 -25 6 -16 -5 -44 -7
-61 -4 -25 4 -28 3 -17 -5 9 -7 10 -11 3 -11 -6 0 -14 4 -18 9 -3 6 -13 10
-23 10 -9 0 -31 1 -49 3 -17 2 -30 1 -27 -3 2 -4 -3 -10 -12 -13 -11 -4 -15
-2 -11 8 5 11 0 13 -25 6 -16 -5 -44 -7 -61 -4 -25 4 -28 3 -17 -5 9 -7 10
-11 3 -11 -6 0 -14 4 -18 9 -3 6 -13 10 -23 10 -9 0 -31 1 -49 3 -17 2 -30 1
-27 -3 2 -4 -3 -10 -12 -13 -11 -4 -15 -2 -11 8 5 11 0 13 -25 6 -16 -5 -44
-7 -61 -4 -25 4 -28 3 -17 -5 9 -7 10 -11 3 -11 -6 0 -14 4 -18 9 -3 6 -13 10
-23 10 -9 0 -31 1 -49 3 -17 2 -30 1 -27 -3 2 -4 -3 -10 -12 -13 -11 -4 -15
-2 -11 8 5 11 0 13 -25 6 -16 -5 -44 -7 -61 -4 -25 4 -28 3 -17 -5 9 -7 10
-11 3 -11 -6 0 -14 4 -18 9 -3 6 -13 10 -23 10 -9 0 -31 1 -49 3 -17 2 -30 1
-27 -3 2 -4 -3 -10 -12 -13 -11 -4 -15 -2 -11 8 5 11 0 13 -25 6 -16 -5 -44
-7 -61 -4 -25 4 -28 3 -17 -5 9 -7 10 -11 3 -11 -6 0 -15 5 -18 11 -4 6 -13 8
-19 6 -7 -3 -19 -1 -26 3 -8 5 -21 5 -30 0 -9 -5 -22 -5 -30 0 -8 5 -21 5 -30
0 -11 -6 -22 -5 -30 3 -10 10 -12 9 -7 -5 4 -12 2 -15 -8 -11 -8 3 -13 9 -10
13 3 4 -10 4 -29 0 -19 -4 -39 -5 -44 -1 -6 4 -27 6 -46 5 -20 -1 -39 3 -43 9
-3 6 -1 7 5 3 7 -4 12 -1 12 10 0 14 2 15 17 3 14 -12 15 -12 9 0 -5 8 -3 17
5 23 11 8 10 9 -3 4 -10 -3 -18 -1 -18 4 0 6 6 10 13 10 8 0 7 4 -3 10 -13 8
-12 10 4 10 20 0 20 0 0 16 -10 8 -14 13 -8 10 7 -3 15 1 18 10 3 8 2 12 -4 9
-6 -3 -10 -2 -10 4 0 5 6 12 13 14 9 4 8 6 -2 6 -11 1 -11 4 0 18 10 11 10 14
2 9 -17 -9 -17 6 0 23 10 11 9 12 -2 6 -11 -6 -13 -4 -8 8 3 9 2 19 -3 22 -13
8 0 36 14 29 6 -3 2 2 -8 10 -20 16 -20 16 0 17 11 0 14 3 6 6 -10 4 -10 8 0
21 10 12 10 14 1 8 -17 -9 -17 6 0 23 10 12 9 13 -7 7 -16 -6 -17 -4 -6 9 8 9
14 38 14 65 1 27 5 52 10 57 5 4 6 3 2 -4 -5 -9 -2 -11 10 -6 11 4 13 8 6 11
-7 2 -12 13 -12 23 0 11 3 18 7 16 5 -3 8 5 8 18 0 13 -3 21 -7 18 -5 -2 -8 3
-8 12 0 10 5 13 13 9 6 -4 4 2 -6 13 -14 16 -15 23 -6 29 8 5 10 3 4 -6 -5 -9
-4 -11 4 -6 9 6 9 11 0 23 -14 17 -20 55 -7 47 4 -3 8 -2 9 3 0 4 2 18 3 30 1
12 -1 20 -5 18 -4 -3 -9 2 -12 10 -4 10 -1 12 11 9 14 -5 13 -3 -2 10 -11 9
-14 16 -7 16 7 0 11 8 9 18 -1 9 1 22 5 29 4 6 2 15 -4 19 -8 5 -9 3 -4 -6 5
-8 4 -11 -3 -6 -17 10 -3 36 16 29 10 -4 7 3 -8 16 -14 12 -20 20 -14 17 15
-8 26 21 12 30 -7 5 -8 2 -3 -6 5 -8 4 -11 -3 -6 -17 10 -3 36 16 29 13 -4 13
-2 -2 9 -18 14 -32 63 -15 53 14 -9 17 23 4 48 -12 23 -11 25 3 21 13 -4 13
-2 -2 10 -11 9 -15 16 -9 16 7 0 11 13 11 30 -1 16 -4 27 -8 25 -4 -2 -7 2 -7
10 0 8 4 12 8 9 4 -2 10 0 14 6 3 5 -2 10 -12 10 -15 0 -16 2 -3 10 13 9 13
10 0 10 -13 0 -13 1 0 10 8 5 10 10 4 10 -19 0 -23 49 -5 60 12 7 12 9 2 10
-10 0 -12 8 -7 30 3 17 2 29 -2 26 -5 -3 -9 1 -9 9 0 8 5 11 10 8 6 -4 8 1 4
11 -4 10 -7 22 -7 27 0 6 -5 7 -12 3 -7 -4 -8 -3 -4 5 4 6 13 8 19 4 7 -4 5 2
-3 12 -14 17 -13 18 5 12 20 -7 20 -7 1 8 -11 8 -14 15 -7 15 7 0 9 5 6 10 -4
6 -11 7 -17 4 -7 -4 -8 -2 -4 4 4 6 14 8 23 5 15 -6 15 -5 0 17 -18 26 -22 45
-9 36 13 -8 8 42 -6 56 -14 14 -16 42 -2 33 6 -3 7 1 4 9 -3 9 -10 13 -15 10
-5 -3 -6 1 -3 9 2 7 0 25 -5 40 -7 18 -7 28 0 33 8 4 7 9 -2 15 -10 6 -10 13
0 35 11 24 10 26 -3 15 -13 -11 -14 -9 -10 14 3 20 1 25 -8 19 -10 -5 -11 -4
-1 7 16 16 17 29 2 29 -5 0 -7 -5 -3 -12 5 -7 3 -8 -5 -3 -9 5 -10 10 -2 18
13 13 15 31 3 23 -4 -2 -6 11 -4 31 4 28 2 34 -9 27 -11 -6 -12 -5 -2 7 9 11
9 19 2 26 -8 8 -7 13 2 18 8 5 10 4 5 -3 -4 -7 -2 -12 3 -12 6 0 11 5 11 12 0
6 3 8 7 5 3 -4 12 -2 20 5 11 8 12 7 8 -5 -4 -8 -1 -18 6 -23 8 -4 10 -3 5 4
-4 7 -2 12 4 12 6 0 8 6 4 13 -5 9 -4 9 6 0 7 -6 19 -9 28 -6 9 4 13 2 9 -4
-3 -5 0 -10 8 -10 8 0 12 4 9 8 -2 4 0 10 6 14 5 3 10 0 10 -7 0 -8 9 -14 20
-14 11 0 20 4 20 9 0 5 12 6 26 3 19 -5 24 -4 18 6 -5 10 -4 10 6 1 7 -6 19
-9 28 -6 9 4 13 2 9 -4 -8 -13 11 -12 32 1 8 5 16 3 22 -5 7 -12 9 -11 9 1 0
13 1 13 10 0 9 -14 15 -7 10 15 -1 6 4 4 11 -2 7 -7 17 -13 22 -13 4 0 5 6 1
13 -5 9 -4 9 6 0 7 -6 19 -9 28 -6 9 4 13 2 9 -4 -3 -5 0 -10 8 -10 8 0 12 4
9 8 -2 4 0 10 6 14 5 3 10 0 10 -7 0 -8 9 -14 20 -14 11 0 20 4 20 9 0 5 12 6
26 3 19 -5 24 -4 18 6 -5 10 -4 10 6 1 7 -6 19 -9 28 -6 9 4 13 2 9 -4 -8 -13
11 -12 32 1 8 5 16 3 22 -5 7 -12 9 -11 9 1 0 13 1 13 10 0 9 -14 15 -7 10 15
-1 6 4 4 11 -2 7 -7 17 -13 22 -13 4 0 5 6 1 13 -5 9 -4 9 6 0 7 -6 19 -9 28
-6 9 4 13 2 9 -4 -3 -5 0 -10 8 -10 8 0 12 4 9 8 -2 4 0 10 6 14 5 3 10 0 10
-7 0 -8 9 -14 20 -14 11 0 20 4 20 9 0 5 12 6 26 3 19 -5 24 -4 18 6 -5 10 -4
10 6 1 7 -6 19 -9 28 -6 10 4 13 2 8 -5 -4 -7 1 -9 16 -6 13 3 35 7 49 8 15 2
33 7 40 12 10 6 10 3 -1 -11 -13 -16 -13 -18 0 -10 8 5 33 10 55 10 23 1 47 5
53 9 7 4 10 2 7 -6 -4 -9 2 -14 15 -15 11 -1 20 3 20 8 0 6 -5 7 -12 3 -7 -5
-8 -3 -3 5 5 9 11 9 17 3 6 -6 17 -8 24 -5 8 3 14 -1 14 -8 0 -11 3 -11 10 1
7 11 10 11 10 2 0 -7 5 -10 10 -7 6 4 7 12 4 18 -5 8 -3 8 7 0 7 -7 17 -13 22
-13 4 0 5 6 1 13 -5 9 -4 9 6 0 7 -6 19 -9 28 -6 9 4 13 2 9 -4 -7 -11 38 -12
48 -1 4 4 14 4 23 1 11 -5 13 -3 7 8 -7 11 -6 12 6 2 17 -14 21 -14 60 -3 26
8 29 7 19 -5 -15 -18 1 -20 18 -3 7 7 12 9 12 6 0 -4 14 -3 31 2 26 8 29 7 19
-5 -15 -18 1 -20 18 -3 7 7 12 8 12 4 0 -5 7 -3 15 4 13 11 14 10 10 -1 -4
-10 2 -15 15 -16 11 -1 20 3 20 8 0 6 -5 7 -12 3 -7 -5 -8 -3 -3 5 5 9 11 9
17 3 6 -6 17 -8 24 -5 8 3 14 -1 14 -8 0 -11 3 -11 10 1 7 11 10 11 10 2 0 -7
5 -10 10 -7 6 4 7 12 4 18 -5 8 -3 8 7 0 7 -7 17 -13 22 -13 4 0 5 6 1 13 -5
9 -4 9 6 0 7 -6 19 -9 28 -6 9 4 13 2 9 -4 -7 -11 38 -12 48 -1 4 4 14 4 23 1
11 -5 13 -3 7 8 -7 11 -6 12 6 2 16 -13 77 -11 101 3 9 6 9 2 -2 -11 -13 -16
-13 -18 0 -10 8 5 33 10 55 10 23 1 47 5 53 9 7 4 10 2 7 -6 -4 -9 2 -14 15
-15 11 -1 20 3 20 8 0 6 -5 7 -12 3 -7 -5 -8 -3 -3 5 5 9 11 9 17 3 6 -6 17
-8 24 -5 8 3 14 -1 14 -8 0 -11 3 -11 10 1 7 11 10 11 10 2 0 -7 5 -10 10 -7
6 4 7 12 4 18 -5 8 -3 8 7 0 7 -7 17 -13 22 -13 4 0 5 6 1 13 -5 9 -4 9 6 0 7
-6 19 -9 28 -6 9 4 13 2 9 -4 -7 -11 38 -12 48 -1 4 4 14 4 23 1 11 -5 13 -3
7 8 -7 11 -6 12 6 2 16 -13 77 -11 101 3 9 6 9 2 -2 -11 -13 -16 -13 -18 0
-10 8 5 33 10 55 10 23 1 47 5 53 9 7 4 10 2 7 -6 -4 -9 2 -14 15 -15 11 -1
20 3 20 8 0 6 -5 7 -12 3 -7 -5 -8 -3 -3 5 5 9 11 9 17 3 6 -6 17 -8 24 -5 8
3 14 -1 14 -8 0 -11 3 -11 10 1 7 11 10 11 10 2 0 -7 5 -10 10 -7 6 4 7 12 4
18 -5 8 -3 8 7 0 7 -7 17 -13 22 -13 4 0 5 6 1 13 -5 9 -4 9 6 0 7 -6 19 -9
28 -6 9 4 13 2 9 -4 -7 -11 38 -12 48 -1 4 4 14 4 23 1 11 -5 13 -3 7 8 -7 11
-6 12 6 2 16 -13 77 -11 101 3 9 6 9 2 -2 -11 -13 -16 -13 -18 0 -10 8 5 33
10 55 10 23 1 47 5 53 9 7 4 10 2 7 -6 -4 -9 2 -14 15 -15 11 -1 20 3 20 8 0
6 -5 7 -12 3 -7 -5 -8 -3 -3 5 5 9 11 9 17 3 6 -6 17 -8 24 -5 8 3 14 -1 14
-8 0 -11 3 -11 10 1 7 11 10 11 10 2 0 -7 5 -10 10 -7 6 4 7 12 4 18 -5 8 -3
8 7 0 7 -7 17 -13 22 -13 4 0 5 6 1 13 -5 9 -4 9 6 0 7 -6 19 -9 28 -6 9 4 13
2 9 -4 -7 -11 38 -12 48 -1 4 4 14 4 23 1 11 -5 13 -3 7 8 -7 11 -6 12 6 3 8
-6 22 -10 32 -9 12 2 17 -2 16 -13 -1 -9 2 -30 7 -47 12 -42 12 -48 0 -64 -9
-12 -7 -13 9 -8 17 6 18 5 4 -5 -16 -11 -16 -13 0 -27 9 -9 12 -13 5 -8 -8 5
-10 0 -6 -18 2 -14 8 -25 13 -25 5 0 9 -5 9 -11 0 -5 -4 -8 -8 -5 -5 3 -9 -1
-9 -9 0 -8 5 -11 10 -8 6 4 8 0 4 -10 -3 -9 -3 -16 1 -16 19 3 25 -2 12 -11
-13 -9 -13 -11 0 -20 11 -7 12 -10 2 -10 -10 0 -10 -4 2 -16 21 -20 20 -28 -1
-20 -13 4 -12 1 4 -13 12 -10 20 -21 17 -24 -3 -3 -1 -15 6 -26 9 -18 8 -21
-7 -22 -15 0 -14 -2 5 -11 12 -6 22 -15 22 -20 0 -5 -4 -7 -8 -4 -4 2 -8 -9
-7 -25 0 -16 5 -27 10 -25 7 2 10 -8 9 -25 -1 -16 3 -29 9 -29 5 0 2 -9 -8
-20 -17 -19 -17 -19 5 -15 17 3 19 1 11 -9 -7 -9 -7 -16 1 -24 9 -9 7 -12 -7
-12 -19 -1 -19 -1 1 -13 19 -10 20 -14 7 -25 -12 -12 -12 -16 -1 -30 16 -19
17 -31 4 -51 -7 -11 -5 -13 7 -8 10 3 17 2 17 -2 0 -5 -8 -12 -17 -16 -16 -6
-16 -8 5 -25 14 -12 18 -21 12 -25 -7 -5 -5 -12 7 -22 10 -8 13 -12 7 -9 -7 3
-14 -1 -17 -9 -4 -8 -1 -12 6 -9 7 2 13 -4 14 -16 1 -11 -2 -18 -7 -15 -6 3
-7 -1 -4 -9 3 -9 10 -16 15 -16 5 0 9 -5 9 -11 0 -5 -6 -7 -12 -4 -7 4 -4 -1
6 -9 20 -16 20 -16 0 -16 -10 0 -15 -4 -9 -8 16 -11 19 -46 3 -36 -10 6 -10 4
1 -9 9 -12 10 -17 2 -17 -7 0 -9 -5 -6 -10 4 -6 11 -8 16 -5 5 4 9 1 9 -4 0
-6 -8 -11 -17 -12 -12 0 -13 -2 -5 -6 10 -4 10 -8 0 -21 -10 -12 -10 -14 0 -8
6 4 12 2 12 -3 0 -6 -6 -11 -12 -11 -9 0 -8 -4 2 -10 13 -8 13 -10 1 -10 -11
0 -10 -4 5 -16 10 -8 13 -13 7 -9 -7 3 -14 1 -14 -4 -1 -6 -2 -17 -3 -23 -1
-7 2 -19 7 -25 5 -7 6 -13 2 -13 -4 0 -1 -8 6 -17 8 -10 9 -14 2 -10 -6 4 -14
3 -18 -3 -3 -5 -1 -10 4 -10 6 0 11 -5 11 -11 0 -5 -6 -7 -12 -4 -7 4 -4 -1 6
-9 20 -16 20 -16 0 -17 -11 0 -14 -3 -6 -6 10 -4 10 -8 0 -21 -10 -12 -10 -14
0 -8 6 4 12 2 12 -3 0 -6 -6 -11 -12 -11 -9 0 -8 -4 2 -10 13 -9 13 -10 0 -10
-12 0 -12 -2 -1 -9 9 -6 10 -11 2 -15 -7 -5 -6 -15 5 -32 13 -19 14 -23 2 -19
-10 4 -13 -2 -13 -20 1 -14 5 -28 8 -32 10 -10 8 -25 -2 -18 -6 3 -6 -6 -1
-24 5 -19 4 -33 -3 -40 -6 -6 -7 -11 -2 -11 5 0 0 -7 -11 -15 -10 -8 -14 -15
-9 -14 24 3 27 -2 9 -17 -10 -8 -13 -13 -6 -9 15 8 16 -11 1 -21 -8 -4 -7 -9
2 -15 10 -6 10 -9 2 -9 -7 0 -10 -7 -6 -16 3 -9 0 -20 -8 -25 -12 -7 -12 -9 0
-9 10 0 10 -6 -4 -26 -9 -15 -12 -23 -6 -20 6 4 11 2 11 -3 0 -6 -4 -11 -10
-11 -5 0 -10 -5 -10 -11 0 -5 4 -8 8 -5 11 6 9 -34 -1 -52 -5 -7 -3 -12 5 -12
9 0 9 -3 -2 -10 -11 -7 -11 -10 -2 -10 7 0 10 -5 7 -10 -4 -6 -12 -8 -18 -4
-7 3 -3 -2 7 -10 11 -9 15 -16 8 -16 -14 0 -11 -51 5 -68 9 -9 10 -19 3 -32
-8 -15 -6 -18 14 -16 24 3 30 -14 11 -31 -4 -4 -5 -3 -2 3 3 6 0 11 -8 11 -11
0 -12 -4 -4 -13 6 -8 14 -13 17 -12 21 2 32 -4 32 -18 0 -12 4 -14 13 -6 6 5
22 8 35 6 12 -2 22 1 22 8 0 6 3 8 6 5 4 -4 1 -13 -5 -21 -9 -11 -9 -16 0 -22
7 -4 9 -3 5 4 -3 6 3 13 14 17 12 4 18 11 14 18 -5 8 -2 8 7 0 7 -7 18 -13 24
-13 5 0 3 5 -5 10 -12 8 -10 10 10 10 20 0 22 2 10 10 -15 9 -13 11 13 14 12
1 13 5 16 45 0 11 8 27 17 35 10 11 11 16 3 16 -7 0 -10 3 -6 6 3 3 2 16 -3
29 -5 14 -5 26 3 34 8 8 8 11 -1 11 -7 0 -12 5 -12 11 0 5 5 7 10 4 7 -4 8 3
4 21 -4 15 -3 25 2 21 5 -3 9 5 9 18 0 17 -3 21 -12 14 -8 -7 -10 -5 -6 10 3
12 12 21 21 21 13 0 12 3 -4 14 -19 15 -19 15 1 31 11 9 13 13 5 9 -13 -7 -13
-5 -1 9 11 14 11 17 0 17 -11 0 -11 2 0 9 12 8 13 12 1 25 -11 14 -11 16 2 11
10 -4 14 1 15 17 1 52 3 59 16 52 9 -5 9 -4 0 6 -6 7 -9 19 -6 28 5 11 3 13
-8 7 -11 -7 -12 -6 -2 6 12 15 12 36 0 56 -10 16 3 44 17 37 6 -3 3 1 -7 9
-14 12 -15 16 -4 20 15 6 16 42 2 54 -4 5 -5 1 0 -7 5 -8 4 -12 0 -7 -5 4 -9
16 -10 27 -1 15 1 17 12 8 11 -9 12 -7 7 7 -6 14 -4 16 6 10 9 -5 11 -4 6 4
-4 6 -11 9 -16 6 -5 -3 -11 -1 -14 4 -3 5 0 11 7 14 15 6 16 42 2 54 -4 5 -5
2 0 -6 5 -9 4 -12 -3 -7 -6 4 -9 13 -6 21 4 8 10 13 14 10 5 -3 6 4 3 15 -3
11 -10 20 -17 20 -6 0 -5 4 3 9 17 11 22 49 8 58 -6 4 -7 1 -2 -7 5 -8 4 -11
-3 -6 -6 4 -9 13 -6 21 4 8 10 13 14 10 5 -3 6 4 3 15 -3 11 -10 20 -17 20 -6
0 -5 4 3 9 17 11 22 49 8 58 -6 4 -7 1 -2 -7 5 -8 4 -11 -3 -6 -6 4 -9 13 -6
21 4 8 9 13 14 10 4 -2 5 7 2 20 -2 15 -9 22 -16 18 -8 -5 -8 -3 0 8 14 17 14
49 1 49 -5 0 -4 7 3 15 10 12 10 15 0 15 -10 0 -10 3 -1 14 9 11 9 16 0 22 -8
5 -9 3 -4 -6 5 -8 4 -11 -2 -7 -6 4 -8 18 -5 32 3 17 0 25 -9 25 -11 0 -11 2
1 10 11 7 11 10 2 10 -10 0 -10 5 -1 23 11 21 11 21 -6 7 -16 -14 -17 -13 -11
8 5 15 3 22 -6 22 -10 0 -9 3 2 10 13 9 13 10 0 10 -13 0 -13 1 0 10 12 8 12
10 1 10 -11 0 -11 3 0 17 10 11 10 14 2 9 -7 -4 -13 -3 -13 1 0 5 6 15 13 22
10 11 9 12 -1 6 -10 -5 -13 -1 -12 16 3 37 1 51 -8 45 -5 -3 -9 1 -9 9 0 8 3
12 7 10 4 -2 7 3 7 11 0 8 -6 13 -13 10 -8 -3 -11 6 -8 30 2 21 -1 34 -9 34
-8 0 -8 3 -2 8 16 11 18 55 2 49 -7 -3 -13 3 -13 13 0 10 3 17 6 15 3 -2 7 5
7 16 1 11 -5 19 -14 19 -13 0 -14 2 -2 17 10 11 10 14 2 9 -9 -5 -13 1 -13 23
0 16 -6 31 -12 34 -10 3 -9 8 2 22 9 11 10 16 3 11 -9 -5 -13 1 -13 19 0 17
-4 24 -12 19 -7 -5 -8 -3 -2 7 14 22 13 37 -2 50 -15 13 -20 34 -5 25 5 -4 7
3 4 14 -3 11 -8 18 -12 16 -9 -6 -7 37 2 51 4 7 3 14 -3 18 -13 8 -13 25 1 25
5 0 7 -5 3 -12 -4 -7 -3 -8 4 -4 12 7 5 36 -9 36 -5 0 -9 5 -9 11 0 5 4 8 8 5
4 -2 8 4 8 14 0 10 -4 16 -8 14 -8 -5 -12 9 -9 39 1 9 -3 17 -10 17 -8 0 -7 5
2 17 13 15 12 15 -11 3 -23 -12 -24 -12 -11 3 9 12 10 17 2 17 -7 0 -9 5 -6
10 3 6 -2 10 -12 10 -15 0 -16 2 -3 11 12 9 11 10 -7 6 -16 -4 -20 -1 -16 11
5 11 2 14 -11 9 -11 -5 -15 -3 -10 5 5 8 2 9 -10 5 -11 -5 -15 -3 -10 5 5 7 0
9 -14 6 -14 -4 -20 -2 -15 5 4 7 0 8 -11 4 -10 -4 -15 -3 -11 3 3 6 1 10 -4
10 -6 0 -11 -5 -11 -11 0 -5 -5 -7 -10 -4 -6 4 -8 11 -5 16 3 5 -1 6 -9 3 -9
-3 -16 -11 -16 -18 0 -6 -5 -4 -10 4 -9 13 -11 13 -20 0 -8 -13 -14 -8 -12 11
1 3 -9 5 -21 4 -12 -1 -28 -3 -35 -4 -8 0 -10 -6 -6 -13 6 -10 4 -10 -8 0 -19
15 -61 25 -53 13 3 -5 -2 -11 -10 -15 -8 -3 -17 -1 -20 3 -2 5 -16 11 -30 13
-13 3 -22 2 -20 -2 3 -5 -2 -10 -10 -14 -8 -3 -17 -1 -20 4 -4 6 -13 10 -21
10 -8 0 -12 -4 -9 -10 3 -6 -1 -7 -9 -4 -9 3 -13 11 -9 18 3 6 3 8 -2 4 -4 -4
-15 -2 -24 5 -14 10 -14 10 -3 -5 10 -12 10 -18 1 -24 -8 -4 -9 -3 -5 4 5 8
-2 12 -19 12 -15 0 -24 4 -20 10 4 6 10 8 15 5 4 -3 7 3 5 12 -2 10 -4 22 -4
26 -1 5 -5 6 -9 3 -10 -6 -9 24 1 40 3 6 -3 20 -16 30 l-22 19 20 -25 20 -25
-28 24 c-27 24 -36 38 -17 26 6 -3 10 -1 10 4 0 6 -5 11 -11 11 -5 0 -7 6 -3
13 5 8 2 8 -9 -2 -15 -12 -17 -11 -17 3 0 14 -3 15 -22 5 -21 -11 -22 -11 -9
4 11 14 2 25 -12 15 -2 -2 -11 3 -20 10 -10 9 -17 10 -22 2 -3 -6 -11 -8 -16
-5 -5 4 -9 0 -9 -7 0 -9 -3 -9 -10 2 -5 8 -10 11 -10 5 0 -5 -5 -3 -10 5 -5 8
-10 10 -10 4 0 -7 -7 -15 -16 -18 -15 -6 -15 -4 -3 10 13 16 12 16 -6 7 -11
-5 -27 -9 -35 -8 -8 1 -20 -3 -27 -7 -7 -6 -14 -4 -19 3 -4 8 -3 9 4 5 7 -4
12 -2 12 3 0 16 -16 13 -30 -4 -7 -8 -18 -15 -24 -14 -7 0 -6 2 2 6 6 2 12 9
12 14 0 6 -7 6 -17 1 -10 -4 -25 -8 -33 -7 -8 1 -20 -3 -27 -7 -7 -6 -15 -3
-22 9 -6 10 -11 13 -11 7 0 -7 -7 -15 -16 -18 -15 -6 -15 -4 -3 10 13 16 12
16 -6 7 -11 -5 -27 -9 -35 -8 -8 1 -21 -3 -28 -8 -9 -7 -11 -6 -7 4 4 10 -1
15 -15 15 -11 0 -19 -5 -17 -11 3 -5 -6 -10 -18 -10 -16 0 -21 4 -17 15 5 13
3 13 -10 2 -13 -10 -17 -10 -20 0 -3 8 -7 6 -11 -6z m531 -21 c-3 -3 -9 2 -12
12 -6 14 -5 15 5 6 7 -7 10 -15 7 -18z m-1218 -189 c0 -3 -4 -8 -10 -11 -5 -3
-10 -1 -10 4 0 6 5 11 10 11 6 0 10 -2 10 -4z m160 0 c0 -3 -4 -8 -10 -11 -5
-3 -10 -1 -10 4 0 6 5 11 10 11 6 0 10 -2 10 -4z m-476 -254 c3 -5 -1 -9 -9
-9 -8 0 -12 4 -9 9 3 4 7 8 9 8 2 0 6 -4 9 -8z m480 0 c3 -5 -1 -9 -9 -9 -8 0
-12 4 -9 9 3 4 7 8 9 8 2 0 6 -4 9 -8z m480 0 c3 -5 -1 -9 -9 -9 -8 0 -12 4
-9 9 3 4 7 8 9 8 2 0 6 -4 9 -8z m480 0 c3 -5 -1 -9 -9 -9 -8 0 -12 4 -9 9 3
4 7 8 9 8 2 0 6 -4 9 -8z m480 0 c3 -5 -1 -9 -9 -9 -8 0 -12 4 -9 9 3 4 7 8 9
8 2 0 6 -4 9 -8z m113 -37 c0 -8 -4 -12 -9 -9 -5 3 -6 10 -3 15 9 13 12 11 12
-6z m273 -129 c0 -3 -4 -8 -10 -11 -5 -3 -10 -1 -10 4 0 6 5 11 10 11 6 0 10
-2 10 -4z m-3792 -1877 c9 -12 9 -16 -1 -16 -7 0 -14 9 -14 20 -1 11 -1 18 0
16 2 -2 8 -11 15 -20z m3486 -15 c9 -24 7 -27 -9 -10 -17 17 -19 26 -6 26 5 0
12 -7 15 -16z m-64 -194 c0 -5 -5 -10 -11 -10 -5 0 -7 5 -4 10 3 6 8 10 11 10
2 0 4 -4 4 -10z"/>
<path d="M1660 2974 c0 -1 6 -7 14 -13 10 -8 16 -8 24 1 8 10 4 13 -14 13 -13
0 -24 -1 -24 -1z"/>
<path d="M1804 2969 c-4 -8 -3 -9 4 -5 8 5 10 1 5 -9 -4 -12 -8 -13 -13 -4 -5
6 -17 9 -29 6 -12 -3 -19 -1 -15 4 3 5 0 9 -5 9 -6 0 -11 -4 -11 -10 0 -5 -7
-7 -15 -4 -8 4 -22 1 -29 -5 -9 -8 -16 -8 -20 -2 -4 6 -14 7 -23 4 -10 -4 -14
-2 -10 4 3 5 0 10 -7 10 -8 0 -12 -6 -10 -12 3 -6 -2 -12 -11 -12 -8 0 -15 5
-16 11 0 6 -5 0 -10 -13 -7 -18 -13 -21 -21 -13 -13 13 -52 -3 -43 -18 3 -5
-3 -14 -14 -19 -14 -8 -21 -8 -24 2 -3 7 -6 4 -6 -6 -1 -11 -5 -15 -13 -11 -8
5 -9 2 -4 -11 5 -15 4 -16 -9 -5 -12 10 -15 9 -15 -6 0 -16 -2 -17 -10 -4 -8
12 -10 12 -10 -5 -1 -20 -1 -20 -15 -1 -8 11 -16 14 -16 8 -1 -7 -2 -18 -3
-24 0 -7 -8 -13 -16 -13 -8 -1 -14 -6 -12 -13 3 -16 -3 -15 -23 4 -15 16 -16
16 -13 -2 2 -12 -2 -18 -10 -16 -8 1 -11 -2 -6 -9 8 -14 -45 -61 -60 -52 -6 3
-7 2 -3 -2 4 -5 -3 -15 -15 -23 -14 -8 -16 -11 -5 -8 11 4 16 2 11 -5 -3 -6
-15 -8 -26 -6 -16 5 -17 3 -6 -11 11 -14 10 -15 -6 -9 -15 6 -17 5 -8 -6 16
-19 3 -28 -22 -15 -17 9 -19 8 -8 -3 17 -18 15 -25 -10 -49 -12 -11 -19 -23
-15 -26 4 -4 -1 -13 -11 -21 -12 -10 -14 -16 -5 -19 10 -4 9 -9 -2 -21 -18
-17 -20 -37 -3 -27 6 4 4 -3 -5 -16 -12 -18 -14 -27 -5 -37 8 -10 8 -17 -1
-26 -10 -9 -11 -8 -6 8 5 15 4 16 -3 6 -5 -7 -7 -22 -4 -34 4 -15 2 -18 -8
-12 -9 5 -11 4 -6 -4 4 -6 13 -8 19 -4 7 4 4 -6 -7 -21 -10 -16 -13 -25 -7
-22 6 4 11 2 11 -3 0 -6 -3 -11 -8 -11 -4 0 -8 -13 -8 -30 -1 -16 2 -28 6 -25
10 6 8 -15 -3 -32 -4 -6 -1 -14 5 -16 10 -4 10 -6 1 -6 -7 -1 -13 -6 -13 -12
0 -5 4 -8 9 -4 5 3 13 1 16 -5 4 -6 1 -9 -6 -8 -6 2 -14 -3 -16 -9 -3 -7 1
-13 7 -13 10 0 10 -3 0 -15 -10 -11 -9 -18 4 -30 19 -20 21 -29 4 -20 -7 4 -4
-1 6 -9 13 -10 15 -16 7 -16 -11 0 -11 -3 0 -17 12 -15 12 -16 -1 -8 -12 6
-13 5 -2 -6 6 -7 12 -21 12 -31 0 -10 5 -18 12 -18 6 0 3 -7 -8 -15 -18 -15
-18 -15 0 -8 16 5 18 3 14 -15 -5 -16 -2 -19 11 -14 14 5 14 4 2 -11 -12 -15
-12 -17 3 -11 12 5 15 2 9 -12 -4 -12 -3 -15 5 -10 7 4 12 3 12 -3 0 -5 -6
-12 -12 -15 -7 -3 -3 -3 9 0 19 4 22 2 16 -12 -4 -12 -3 -15 5 -10 7 4 12 3
12 -1 0 -5 7 -18 16 -29 14 -18 15 -18 4 6 -11 24 -10 24 4 6 9 -11 16 -24 16
-29 0 -5 7 -4 15 3 18 15 20 -1 3 -19 -11 -11 -10 -12 1 -6 11 6 13 3 9 -13
-4 -12 -1 -25 4 -29 6 -3 8 -1 4 5 -3 6 -2 13 3 16 11 7 9 -13 -3 -33 -6 -10
-5 -12 2 -7 7 4 13 0 14 -11 0 -10 2 -24 2 -32 1 -8 11 -17 24 -22 26 -10 30
-21 5 -13 -10 3 -7 -1 7 -9 14 -9 24 -18 23 -21 -6 -14 -2 -27 6 -22 5 3 14
-1 21 -9 11 -13 10 -14 -6 -9 -15 4 -16 4 -5 -4 8 -6 20 -8 28 -5 8 3 13 -2
13 -12 0 -11 5 -15 15 -11 11 4 19 -3 25 -20 9 -23 12 -24 27 -13 14 12 16 12
11 -2 -5 -13 -2 -16 14 -11 16 4 19 2 13 -9 -7 -11 -5 -11 10 1 11 9 16 10 11
3 -4 -8 -1 -13 9 -13 10 0 13 -5 9 -12 -5 -8 -2 -9 9 -5 10 4 22 -2 33 -16 11
-15 15 -17 11 -4 -4 9 -2 17 3 17 5 0 11 -8 15 -18 3 -11 17 -24 32 -31 25
-11 25 -11 12 6 -13 17 -13 17 6 1 11 -9 24 -17 28 -16 5 0 12 -4 15 -8 4 -4
2 -4 -5 0 -6 3 -14 2 -17 -3 -7 -11 13 -9 33 3 10 6 12 5 7 -2 -4 -7 -2 -12 4
-12 6 0 8 -5 4 -12 -4 -7 -3 -8 5 -4 22 14 61 14 72 0 6 -8 15 -11 20 -8 5 3
9 0 9 -7 0 -9 3 -9 14 0 11 9 16 9 21 1 4 -7 22 -10 40 -8 19 2 32 1 29 -3 -2
-4 3 -9 11 -12 9 -4 12 -1 9 8 -4 11 1 13 22 9 16 -3 35 -11 43 -17 12 -10 14
-9 9 3 -4 11 0 16 12 16 10 0 17 -3 14 -7 -2 -4 3 -9 11 -12 9 -4 12 -1 9 8
-4 11 1 13 22 9 16 -3 35 -11 43 -17 12 -10 14 -9 9 3 -4 11 0 16 12 16 10 0
17 -3 14 -7 -2 -4 3 -9 11 -12 9 -4 12 -1 9 8 -6 14 19 15 32 2 12 -12 26 -8
19 6 -4 6 1 3 9 -7 15 -19 16 -19 16 -2 0 16 2 17 17 5 15 -12 16 -12 10 5 -6
16 -5 17 8 6 8 -7 12 -17 9 -24 -3 -6 0 -4 8 5 7 9 19 14 26 12 6 -3 12 1 12
9 0 10 3 9 10 -2 9 -13 11 -13 20 0 9 13 11 13 20 0 7 -12 10 -12 10 -1 0 8 6
11 16 7 8 -3 12 -2 9 4 -3 5 11 12 32 15 21 4 49 11 63 17 14 6 29 11 34 9 14
-3 47 32 42 46 -7 16 11 27 20 12 5 -8 3 -9 -6 -4 -9 5 -11 4 -6 -4 10 -15 29
-3 22 15 -3 9 0 11 11 7 9 -4 14 -2 10 3 -3 5 4 21 14 34 l20 25 -11 -25 c-11
-24 -10 -24 5 -5 8 11 13 26 10 34 -5 11 -3 12 10 1 13 -11 14 -10 9 4 -4 9
-3 16 2 15 21 -4 28 2 14 11 -12 8 -10 10 10 10 20 0 22 2 10 11 -12 9 -11 10
7 6 19 -4 21 -2 13 13 -7 13 -7 21 0 25 5 3 10 3 10 0 0 -3 6 0 14 7 8 7 14
15 14 18 -1 19 3 30 12 30 5 0 7 -8 3 -17 -3 -10 -3 -15 1 -11 4 3 8 12 10 20
1 7 6 19 10 27 7 11 6 12 -5 6 -12 -8 -12 -6 0 8 7 9 20 17 27 17 8 0 14 5 14
11 0 5 -5 7 -12 3 -7 -4 -8 -3 -4 4 4 7 14 12 22 12 8 0 12 5 9 10 -4 6 -11 7
-17 4 -7 -5 -8 -2 -4 5 5 7 15 10 24 6 9 -3 13 -3 10 1 -4 3 -1 19 8 35 13 26
13 28 -3 22 -15 -6 -16 -4 -6 9 7 8 9 18 5 22 -4 4 -2 7 3 6 24 -5 27 1 9 15
-10 8 -14 15 -9 14 23 -3 27 2 14 18 -12 14 -12 16 0 8 11 -6 13 -4 8 8 -4 10
-2 17 5 17 7 0 7 4 -1 14 -8 10 -9 16 -1 21 6 3 7 12 3 18 -5 9 -3 9 8 0 11
-9 14 -7 14 12 0 18 -3 21 -13 13 -10 -8 -11 -6 -5 8 4 10 13 24 21 30 12 9
13 13 2 19 -9 6 -11 4 -5 -6 6 -11 5 -12 -5 -2 -12 11 -11 16 6 29 10 8 13 13
7 9 -7 -3 -13 -2 -13 2 0 5 6 15 13 22 10 11 10 14 0 18 -7 3 -13 9 -13 15 0
6 7 8 14 5 10 -4 13 -1 9 9 -3 7 -10 14 -15 14 -6 0 -5 7 2 15 7 9 10 18 7 22
-4 3 -2 12 4 19 7 8 6 14 -2 20 -8 5 -9 3 -4 -6 5 -9 4 -11 -3 -6 -9 5 -9 13
-2 26 13 25 13 33 -2 24 -10 -6 -10 -4 0 8 8 10 9 18 3 22 -6 4 -8 13 -5 20 3
8 1 17 -5 20 -6 4 -7 14 -4 23 5 12 2 15 -9 10 -12 -4 -14 -1 -10 15 4 16 2
19 -9 13 -11 -7 -11 -5 1 10 9 11 10 16 3 11 -12 -6 -19 18 -14 47 1 5 -3 6
-8 2 -6 -3 -9 -11 -7 -18 1 -7 1 -9 -1 -4 -3 4 -8 5 -12 2 -5 -2 -6 7 -3 20 3
19 0 25 -13 25 -12 0 -16 6 -13 18 4 12 -1 18 -13 19 -11 1 -19 -3 -19 -9 0
-6 -3 -8 -6 -5 -4 4 -1 13 6 22 10 12 10 15 -3 15 -8 0 -18 7 -21 16 -4 10
-12 14 -22 10 -14 -5 -15 -4 -4 9 7 9 10 18 6 22 -3 3 -6 2 -6 -4 0 -5 -6 -10
-14 -10 -8 0 -11 8 -8 20 3 14 1 18 -6 13 -7 -4 -12 -1 -12 8 0 10 -9 16 -22
16 -19 0 -20 2 -8 10 13 8 12 10 -3 10 -12 0 -16 4 -11 13 5 7 0 6 -11 -3 -17
-14 -18 -13 -12 2 4 13 1 16 -14 13 -18 -4 -19 -2 -7 12 12 15 11 15 -12 3
-23 -12 -24 -12 -11 4 12 14 12 16 -4 10 -12 -5 -16 -4 -12 3 4 6 0 14 -9 17
-8 3 -12 2 -9 -4 3 -6 1 -10 -4 -10 -6 0 -11 6 -11 14 0 13 -27 31 -42 28 -5
-1 -8 2 -8 8 0 5 -7 6 -17 3 -12 -5 -14 -3 -8 7 6 10 4 12 -10 6 -15 -5 -16
-4 -6 8 10 12 8 13 -10 9 -15 -4 -20 -3 -15 5 4 7 2 12 -4 12 -6 0 -8 5 -4 12
4 7 3 8 -5 4 -6 -4 -9 -11 -6 -16 3 -5 1 -12 -5 -15 -6 -4 -10 -3 -9 2 1 4 1
15 0 23 -1 13 -2 13 -11 0 -6 -10 -10 -11 -10 -2 0 6 -11 12 -25 12 -14 0 -25
6 -25 13 0 8 -4 7 -10 -3 -8 -12 -10 -12 -10 5 0 15 -2 17 -9 6 -7 -11 -9 -11
-14 0 -5 12 -6 12 -6 0 -1 -10 -7 -10 -27 4 -15 9 -23 12 -20 6 4 -6 3 -11 -3
-11 -5 0 -12 6 -14 13 -4 10 -6 10 -6 0 -1 -20 -21 -15 -21 4 0 15 -2 14 -16
-3 -10 -12 -14 -14 -11 -4 3 11 -3 16 -24 16 -16 1 -27 -2 -24 -5 6 -10 -33
-7 -42 4 -5 4 -2 5 6 0 9 -5 12 -4 8 3 -9 13 -30 10 -51 -7 -13 -11 -17 -11
-22 2 -3 9 -12 18 -19 21 -10 3 -12 0 -8 -12 6 -14 4 -15 -8 -5 -21 17 -59 22
-88 11 -21 -7 -22 -7 -11 7 11 13 9 14 -21 2 -39 -16 -73 -15 -93 2 -11 9 -16
9 -22 0z m196 -15 c0 -8 -19 -13 -24 -6 -3 5 1 9 9 9 8 0 15 -2 15 -3z m-443
-38 c0 -8 -6 -12 -15 -9 -11 5 -11 7 0 14 7 5 13 9 14 9 0 0 1 -6 1 -14z m170
-220 c-4 -10 -1 -13 8 -9 8 3 13 8 11 12 -5 8 53 6 60 -2 3 -3 19 -1 35 3 18
6 31 5 35 -2 5 -7 2 -8 -6 -3 -9 6 -11 4 -5 -5 6 -10 11 -9 21 4 8 11 14 13
19 7 3 -6 11 -11 16 -11 6 0 8 3 6 8 -3 4 5 7 18 7 13 0 21 -3 19 -6 -2 -4 3
-10 12 -13 8 -3 12 -2 9 4 -3 6 1 10 9 10 9 0 16 -5 16 -11 0 -6 7 -3 16 5 19
20 31 21 14 2 -10 -13 -7 -14 17 -12 15 1 34 -2 42 -8 12 -9 13 -7 8 8 -7 16
-5 17 8 6 20 -16 65 -20 65 -5 0 5 5 2 11 -8 8 -14 14 -16 25 -6 9 7 14 8 14
1 0 -6 11 -9 26 -6 15 3 23 1 20 -5 -4 -6 5 -6 21 -2 30 8 73 -7 73 -26 0 -7
5 -13 11 -13 5 0 7 5 4 11 -4 6 2 5 13 -2 12 -7 18 -18 14 -24 -3 -5 3 -3 13
5 11 9 16 10 11 3 -4 -8 -2 -13 6 -13 9 0 9 -3 -2 -10 -8 -5 -10 -10 -4 -10 5
0 15 5 22 12 9 9 12 8 12 -4 0 -9 5 -20 12 -24 6 -4 8 -3 5 2 -3 5 3 10 14 10
12 0 15 -4 9 -10 -15 -15 -12 -26 5 -20 10 4 15 0 16 -12 0 -18 1 -17 9 1 7
16 9 17 9 3 1 -9 10 -19 20 -23 13 -4 18 -11 14 -22 -5 -12 -2 -15 10 -10 9 3
19 1 23 -5 4 -7 3 -8 -4 -4 -7 4 -12 5 -12 1 0 -3 11 -10 25 -15 14 -5 25 -16
25 -25 0 -8 7 -15 15 -15 8 0 15 -4 15 -10 0 -5 8 -10 18 -11 15 0 14 -1 -2
-8 -19 -7 -18 -8 5 -14 20 -6 21 -9 9 -17 -14 -9 -7 -15 14 -11 5 1 3 -6 -5
-15 -8 -10 -9 -15 -2 -11 6 4 14 3 18 -3 3 -5 0 -10 -7 -10 -9 0 -9 -3 -2 -8
6 -4 10 -17 9 -29 -1 -13 3 -23 8 -23 5 0 4 -6 -2 -13 -6 -8 -8 -16 -5 -20 3
-3 7 -19 8 -36 1 -22 -1 -28 -9 -21 -13 11 -14 -17 -1 -38 4 -8 1 -12 -11 -13
-16 0 -16 -1 2 -9 11 -5 15 -9 8 -9 -7 -1 -10 -8 -6 -18 5 -12 3 -14 -8 -8
-12 8 -12 6 0 -8 12 -16 8 -22 -12 -18 -5 1 -6 -3 -2 -9 3 -5 1 -19 -5 -30 -6
-12 -7 -20 -1 -20 5 0 12 6 14 13 4 9 6 9 6 -1 1 -7 -6 -15 -15 -19 -13 -5
-13 -7 -2 -14 11 -7 11 -9 -1 -9 -10 0 -11 -3 -2 -14 9 -11 9 -16 -1 -23 -7
-4 -13 -15 -13 -23 0 -8 -6 -14 -14 -12 -12 3 -12 0 -1 -12 9 -12 9 -16 1 -16
-7 0 -10 -4 -6 -9 3 -6 -4 -15 -15 -21 -11 -6 -17 -16 -14 -22 5 -8 1 -9 -12
-4 -10 4 -15 4 -11 0 4 -4 1 -14 -6 -22 -10 -13 -9 -14 2 -7 10 6 12 4 7 -4
-5 -7 -15 -10 -23 -6 -14 5 -14 3 -2 -12 8 -9 9 -14 3 -10 -7 4 -14 -2 -17
-14 -4 -14 -11 -20 -20 -16 -10 4 -14 -1 -13 -16 1 -16 -4 -21 -17 -19 -10 2
-16 -3 -15 -10 2 -7 -3 -12 -9 -11 -7 2 -13 -4 -13 -12 0 -9 -6 -12 -15 -9
-10 4 -13 2 -10 -8 4 -9 -1 -14 -14 -14 -16 0 -18 3 -8 15 10 12 9 13 -1 7 -7
-4 -17 -18 -22 -30 -7 -17 -9 -17 -9 -3 -1 9 -6 17 -12 17 -6 0 -9 -6 -6 -13
3 -8 -1 -14 -9 -14 -9 0 -13 6 -9 16 5 12 3 12 -13 -2 -15 -13 -21 -14 -32 -4
-8 7 -11 8 -7 1 8 -14 -20 -27 -28 -14 -3 6 -16 5 -31 0 -14 -6 -23 -6 -20 -1
3 5 0 11 -8 14 -10 4 -12 -1 -9 -16 5 -22 5 -22 -11 -2 -10 11 -15 14 -11 8 4
-9 0 -11 -16 -5 -12 5 -40 6 -60 2 -21 -4 -36 -3 -33 1 3 5 -2 9 -11 9 -9 0
-14 -4 -11 -8 3 -5 -1 -9 -9 -9 -8 0 -12 4 -9 9 3 5 -6 6 -20 2 -16 -4 -32 -1
-41 6 -13 11 -14 10 -9 -6 6 -16 5 -17 -7 -6 -16 14 -33 16 -24 2 9 -15 -2
-12 -19 6 -9 8 -16 11 -16 5 0 -6 -5 -11 -11 -11 -5 0 -7 5 -4 10 8 13 -1 13
-28 -1 -12 -7 -19 -8 -15 -4 12 13 -25 35 -39 24 -7 -7 -14 -6 -19 2 -5 8 -3
9 6 4 8 -5 11 -4 6 3 -4 6 -13 9 -22 5 -9 -3 -25 6 -41 23 -20 23 -24 25 -19
9 4 -14 -1 -12 -19 10 -22 27 -39 34 -97 38 -9 1 -16 4 -16 7 0 3 0 12 -1 20
-1 12 -3 13 -10 1 -7 -11 -10 -9 -15 7 -4 12 -16 24 -26 27 -11 4 -17 12 -13
21 3 7 0 14 -7 14 -6 0 -9 3 -7 8 7 10 -19 32 -29 24 -5 -4 -3 0 4 9 10 14 10
18 -2 22 -8 3 -20 16 -26 28 -7 12 -8 19 -2 15 6 -3 14 -2 17 4 4 6 3 10 -2 9
-18 -3 -36 1 -30 7 3 4 -5 21 -18 39 -14 17 -25 36 -25 40 0 5 6 1 13 -10 11
-14 16 -15 22 -5 5 8 4 11 -2 7 -6 -4 -13 0 -17 8 -3 8 -15 15 -26 15 -12 0
-18 5 -15 10 3 6 1 10 -4 10 -6 0 -11 7 -11 15 0 8 -4 15 -10 15 -5 0 -10 5
-10 11 0 5 6 7 13 3 6 -4 1 5 -13 20 -14 15 -18 25 -9 21 10 -4 15 1 15 14 0
11 -4 18 -7 15 -4 -2 -10 0 -14 6 -3 5 -1 10 4 10 6 0 11 5 11 11 0 5 -4 8 -9
5 -11 -7 -9 13 2 32 5 7 3 12 -3 12 -6 0 -8 5 -5 10 4 6 12 7 18 3 9 -5 9 -3
0 8 -10 12 -10 18 0 28 9 10 8 11 -6 5 -13 -5 -16 -2 -11 10 3 9 11 13 16 10
6 -4 5 3 -1 15 -10 18 -9 21 6 21 14 0 15 2 5 9 -17 10 -17 22 -1 32 8 5 12
24 11 49 -2 26 1 39 7 36 6 -4 8 2 6 14 -2 11 1 20 7 20 16 0 58 41 58 56 0 7
5 16 12 20 7 5 9 2 4 -7 -4 -8 1 -4 12 9 14 15 22 18 25 10 3 -7 6 -2 6 12 1
14 5 20 9 15 15 -22 57 -2 47 22 -4 13 -3 14 10 3 11 -9 15 -9 15 -1 0 7 5 9
10 6 6 -3 10 1 10 9 0 8 5 18 12 22 8 5 9 1 4 -12 -5 -14 0 -12 19 9 27 28 45
35 45 16 0 -6 7 -3 16 5 19 20 28 20 21 2z m-167 -72 c0 -8 -19 -13 -24 -6 -3
5 1 9 9 9 8 0 15 -2 15 -3z m-136 -95 c-9 -11 -20 -17 -23 -13 -3 3 2 10 12
15 9 6 14 15 11 21 -5 7 -2 8 5 4 9 -6 8 -13 -5 -27z m275 -862 c0 -9 -2 -8
-6 1 -2 6 -10 9 -15 6 -7 -4 -8 -2 -4 5 9 13 26 5 25 -12z m921 -262 c-7 -8
-18 -15 -24 -15 -6 0 -2 7 8 15 25 19 32 19 16 0z m-50 -19 c0 -2 -7 -7 -16
-10 -8 -3 -12 -2 -9 4 6 10 25 14 25 6z"/>
<path d="M2316 2652 c-3 -5 1 -9 9 -9 8 0 12 4 9 9 -3 4 -7 8 -9 8 -2 0 -6 -4
-9 -8z"/>
<path d="M1813 2491 c10 -12 9 -12 -10 -2 -18 9 -23 9 -23 -1 0 -10 -2 -10 -8
-1 -8 13 -37 12 -49 -2 -4 -4 -3 -5 4 -1 6 3 14 3 17 -2 3 -5 0 -9 -7 -9 -7 0
-21 -4 -32 -9 -19 -7 -19 -6 -5 12 14 18 14 18 -2 5 -10 -7 -18 -21 -18 -30 0
-14 -2 -14 -10 -1 -7 11 -10 11 -10 2 0 -7 -5 -10 -11 -6 -8 4 -8 0 0 -15 10
-18 9 -20 -6 -14 -12 5 -15 2 -10 -10 4 -10 2 -16 -5 -14 -6 1 -13 -4 -16 -12
-3 -9 0 -11 9 -7 8 4 6 1 -4 -7 -10 -9 -19 -19 -20 -24 -1 -4 -5 -7 -9 -6 -5
2 -8 -2 -8 -7 0 -5 6 -10 13 -10 8 0 8 -3 -2 -9 -19 -12 -23 -43 -8 -53 9 -6
8 -8 -2 -8 -10 0 -11 -3 -2 -14 9 -11 9 -16 0 -22 -7 -4 -9 -3 -6 3 3 5 0 10
-7 10 -8 0 -11 -8 -8 -19 2 -10 8 -15 13 -13 4 3 6 -4 4 -16 -3 -13 -10 -26
-17 -31 -9 -5 -9 -8 -2 -8 7 0 14 -7 17 -14 4 -11 1 -13 -10 -9 -11 4 -14 2
-11 -8 3 -8 11 -13 17 -11 7 1 10 -2 6 -8 -3 -6 -11 -8 -16 -5 -5 4 -9 1 -9
-4 0 -6 4 -11 8 -11 5 0 9 -7 9 -15 0 -8 -5 -15 -11 -15 -6 0 -5 -4 3 -9 9 -6
12 -20 9 -40 -4 -31 6 -43 15 -18 4 7 6 6 6 -5 1 -9 -5 -19 -11 -21 -7 -3 -3
-6 10 -6 13 -1 20 -5 17 -11 -4 -6 -12 -8 -18 -4 -7 3 -4 -1 6 -9 9 -8 17 -22
17 -31 0 -9 5 -16 11 -16 5 0 8 -4 4 -9 -3 -5 4 -12 15 -16 11 -4 18 -11 15
-16 -4 -5 -1 -9 6 -9 7 0 9 -8 6 -21 -3 -12 -3 -18 0 -15 4 3 15 -2 26 -11 11
-10 17 -12 13 -5 -4 6 -2 12 3 12 6 0 11 -8 12 -17 0 -15 2 -15 8 2 8 19 8 19
15 -3 4 -12 11 -20 16 -17 5 3 13 -3 19 -12 6 -10 11 -12 11 -5 0 6 5 12 11
12 5 0 7 -4 4 -10 -4 -6 5 -10 19 -10 18 0 26 -6 27 -17 0 -15 2 -15 9 2 5 11
9 14 9 7 1 -7 6 -10 11 -7 6 3 10 2 10 -3 0 -6 7 -13 16 -16 13 -5 14 -3 6 7
-8 10 -7 13 7 13 12 0 17 -6 14 -16 -3 -11 -1 -11 10 3 13 15 15 15 20 2 4 -8
13 -12 22 -9 8 3 12 11 9 18 -3 6 2 2 10 -8 12 -15 16 -16 16 -5 0 12 2 12 10
-1 6 -10 10 -11 10 -2 0 6 5 12 11 12 5 0 7 -6 3 -12 -5 -8 -1 -8 10 1 15 13
19 13 27 0 7 -11 9 -11 9 0 0 11 3 11 17 0 15 -12 16 -12 10 4 -8 21 -3 22 17
1 15 -14 16 -14 17 3 0 16 1 16 9 -2 5 -11 9 -14 9 -6 1 10 4 11 15 2 11 -9
16 -9 22 0 5 8 3 9 -7 4 -12 -8 -12 -6 0 8 14 18 26 23 16 8 -3 -5 -1 -12 5
-16 5 -3 10 -2 10 3 0 5 12 8 26 6 20 -2 24 1 20 13 -5 13 -4 14 9 3 13 -11
14 -10 10 2 -7 17 26 21 38 4 4 -6 5 2 3 17 -4 23 -2 26 8 18 10 -8 18 -6 31
9 18 20 18 21 -1 14 -18 -6 -18 -6 1 9 11 8 22 14 25 12 3 -1 16 12 30 29 l24
31 -24 -20 -25 -20 15 20 c19 25 32 35 41 30 3 -3 5 6 4 20 -2 18 1 22 12 18
13 -5 13 -2 4 15 -10 18 -9 20 10 17 16 -3 18 -1 10 8 -6 8 -6 18 -1 27 5 8 7
17 4 21 -2 4 1 11 7 15 8 5 9 3 4 -6 -6 -9 -4 -11 4 -6 9 6 8 13 -5 27 -15 16
-15 19 -2 14 9 -4 18 0 22 10 3 9 2 13 -4 10 -14 -9 -12 9 2 23 9 9 9 12 0 12
-7 0 -12 5 -12 11 0 5 4 7 10 4 5 -3 3 9 -4 27 -7 18 -11 39 -8 47 3 8 0 11
-7 7 -6 -4 -11 0 -11 9 0 10 5 14 13 9 6 -3 0 6 -16 20 -15 15 -24 32 -21 38
4 7 2 8 -4 4 -8 -5 -12 2 -12 18 0 14 -3 25 -7 25 -24 -4 -35 2 -26 14 7 8 4
18 -9 30 -20 19 -25 9 -5 -12 6 -8 -3 -3 -20 9 -18 13 -33 28 -33 33 0 5 -9 7
-19 4 -14 -3 -19 0 -16 12 2 10 -3 18 -11 18 -9 0 -13 -6 -9 -16 3 -9 -3 -7
-14 7 -19 22 -38 31 -26 13 3 -5 1 -13 -5 -16 -6 -4 -9 -1 -8 7 2 8 -7 13 -22
14 -48 3 -51 4 -44 17 5 7 0 6 -11 -3 -10 -8 -16 -10 -12 -4 4 7 -1 15 -11 19
-28 13 -42 14 -36 3 4 -6 1 -8 -7 -6 -8 3 -13 10 -12 15 1 5 -14 7 -34 5 -23
-3 -38 0 -44 9 -6 10 -9 10 -9 2 0 -19 -123 -12 -132 7 -5 11 -7 10 -7 -5 -1
-16 -3 -17 -10 -6 -5 8 -23 15 -39 15 -25 1 -28 -1 -19 -13z m-203 -196 c0 -2
-6 -8 -13 -14 -10 -8 -14 -7 -14 2 0 8 6 14 14 14 7 0 13 -1 13 -2z m320 -73
c29 2 39 0 36 -9 -3 -7 1 -10 9 -6 8 3 13 9 10 13 -3 5 4 6 15 3 11 -3 20 -10
20 -17 0 -6 5 -4 10 4 9 13 11 13 20 0 9 -13 10 -13 10 0 1 12 3 12 11 -2 5
-10 16 -15 24 -11 9 3 23 -1 32 -8 12 -10 15 -10 9 -1 -4 6 -2 12 3 12 6 0 11
-8 11 -17 0 -16 2 -16 11 -3 9 12 10 11 6 -7 -3 -13 0 -26 5 -30 6 -3 8 -1 4
5 -3 6 -2 13 4 17 5 3 10 -1 10 -9 0 -9 6 -15 13 -13 6 1 11 -3 10 -10 -2 -6
6 -15 17 -18 11 -4 20 -15 20 -26 0 -11 4 -18 8 -15 4 2 8 -4 8 -14 0 -14 -3
-16 -13 -8 -10 8 -12 7 -7 -6 4 -10 0 -18 -10 -22 -9 -3 -16 -10 -16 -16 0 -5
5 -6 12 -2 7 4 8 3 4 -5 -6 -9 -11 -9 -22 0 -12 9 -13 9 -9 -3 3 -8 0 -19 -7
-25 -18 -15 -62 -27 -55 -16 7 12 -30 10 -40 -2 -5 -4 -2 -5 6 0 10 5 12 4 7
-4 -4 -6 -13 -8 -19 -4 -21 13 -49 14 -65 1 -13 -11 -15 -10 -9 5 4 11 3 16
-4 12 -20 -13 -109 -11 -109 3 0 6 -6 11 -12 10 -7 -2 -12 4 -10 12 3 12 1 13
-9 3 -20 -20 -29 -16 -29 13 0 14 -4 23 -10 19 -6 -4 -10 11 -10 37 0 31 -3
39 -10 28 -5 -8 -10 -11 -10 -7 0 4 8 20 18 34 9 15 11 24 5 20 -7 -5 -13 -4
-13 2 0 6 6 11 13 12 9 0 9 2 -1 6 -10 4 -9 10 4 30 9 15 11 22 3 18 -8 -6
-10 -4 -5 4 5 7 15 10 23 7 11 -5 13 -2 9 10 -5 14 -4 15 9 4 8 -7 32 -10 55
-8z m-220 -428 c0 -8 -19 -13 -24 -6 -3 5 1 9 9 9 8 0 15 -2 15 -3z"/>
<path d="M2535 2181 c-3 -5 -2 -12 3 -15 5 -3 9 1 9 9 0 17 -3 19 -12 6z"/>
<path d="M1445 1971 c-6 -11 13 -26 22 -17 4 3 1 6 -6 6 -7 0 -9 5 -6 10 3 6
4 10 1 10 -3 0 -7 -4 -11 -9z"/>
<path d="M1485 1891 c-3 -5 -2 -12 3 -15 5 -3 9 1 9 9 0 17 -3 19 -12 6z"/>
<path d="M741 2875 c-1 -11 -4 -16 -9 -10 -11 17 -37 11 -36 -7 1 -10 -4 -14
-12 -11 -8 3 -11 10 -7 16 3 6 1 7 -6 3 -6 -4 -8 -12 -5 -18 5 -8 1 -9 -10 -5
-14 5 -17 3 -12 -8 3 -9 0 -15 -10 -15 -9 0 -12 5 -8 13 6 10 -6 1 -46 -32 -3
-2 3 -1 12 2 10 3 20 2 23 -3 4 -6 -1 -10 -9 -10 -10 0 -13 -6 -9 -17 4 -10 2
-14 -5 -9 -6 3 -13 2 -17 -4 -3 -5 -2 -10 4 -10 5 0 9 -9 8 -19 0 -11 -5 -17
-9 -15 -5 3 -6 10 -3 15 4 5 -2 6 -11 2 -11 -4 -13 -8 -6 -11 7 -2 12 -10 12
-18 0 -9 4 -13 9 -9 5 3 13 0 17 -6 5 -8 3 -9 -6 -4 -10 6 -12 3 -8 -13 4 -12
2 -20 -3 -16 -5 3 -6 -2 -3 -10 3 -9 12 -12 22 -8 15 5 15 4 3 -11 -8 -10 -11
-20 -7 -24 3 -3 6 0 6 8 1 10 4 9 11 -4 6 -9 14 -15 18 -12 5 2 15 -3 22 -13
12 -15 12 -16 -1 -5 -11 8 -20 9 -30 1 -13 -8 -12 -9 2 -5 9 3 19 3 22 -1 12
-12 48 -13 40 0 -4 7 -3 8 5 4 6 -4 8 -12 5 -18 -4 -6 1 -8 15 -3 11 3 21 2
21 -3 0 -6 7 -13 16 -16 13 -5 14 -4 6 7 -9 10 -5 13 18 11 17 -1 30 2 30 7 0
6 8 5 20 -1 16 -9 19 -8 13 6 -4 12 -3 15 5 10 7 -4 12 -2 12 5 0 8 5 7 17 -2
15 -13 15 -12 3 11 -12 23 -12 24 4 11 14 -12 16 -12 10 4 -5 13 -4 16 4 11 8
-5 14 3 18 23 4 17 10 31 15 31 14 0 11 28 -3 33 -7 3 -2 6 12 7 23 1 23 2 5
10 -13 6 -15 9 -5 9 13 1 13 2 0 11 -8 5 -15 15 -16 22 -3 35 -5 41 -11 35 -3
-4 -13 3 -21 14 -12 18 -13 23 -1 31 10 7 8 8 -8 3 -31 -9 -48 2 -32 21 8 10
8 14 0 14 -6 0 -11 -4 -11 -8 0 -5 -18 -8 -40 -8 -27 0 -41 5 -43 16 -3 10 -5
9 -6 -5z"/>
<path d="M886 2818 c3 -5 10 -6 15 -3 13 9 11 12 -6 12 -8 0 -12 -4 -9 -9z"/>
<path d="M1140 2610 c-9 -6 -10 -10 -3 -10 6 0 15 5 18 10 8 12 4 12 -15 0z"/>
<path d="M425 1730 c-3 -5 -1 -10 4 -10 6 0 11 5 11 10 0 6 -2 10 -4 10 -3 0
-8 -4 -11 -10z"/>
<path d="M4140 1570 c0 -5 5 -10 11 -10 5 0 7 5 4 10 -3 6 -8 10 -11 10 -2 0
-4 -4 -4 -10z"/>
<path d="M3860 1491 c0 -6 4 -13 10 -16 6 -3 7 1 4 9 -7 18 -14 21 -14 7z"/>
<path d="M1794 1339 c-4 -7 -3 -9 4 -5 5 3 13 0 15 -6 4 -9 6 -10 6 -1 1 17
-16 25 -25 12z"/>
<path d="M150 1069 c0 -5 5 -7 10 -4 6 3 10 8 10 11 0 2 -4 4 -10 4 -5 0 -10
-5 -10 -11z"/>
<path d="M3833 1015 c0 -8 4 -12 9 -9 5 3 6 10 3 15 -9 13 -12 11 -12 -6z"/>
<path d="M3726 915 c4 -8 11 -15 16 -15 6 0 5 6 -2 15 -7 8 -14 15 -16 15 -2
0 -1 -7 2 -15z"/>
<path d="M3930 908 c0 -4 4 -8 9 -8 6 0 12 4 15 8 3 5 -1 9 -9 9 -8 0 -15 -4
-15 -9z"/>
</g>
</svg>
